<?xml version="1.0" encoding="UTF-8" ?>
<svg version="1.1" width="32" height="32" xmlns="http://www.w3.org/2000/svg" shape-rendering="crispEdges">
<rect x="2" y="0" width="1" height="1" fill="#FFFFFF" />
<rect x="3" y="0" width="1" height="1" fill="#FFFFFF" />
<rect x="4" y="0" width="1" height="1" fill="#FFFFFF" />
<rect x="5" y="0" width="1" height="1" fill="#FFFFFF" />
<rect x="6" y="0" width="1" height="1" fill="#FFFFFF" />
<rect x="7" y="0" width="1" height="1" fill="#FFFFFF" />
<rect x="8" y="0" width="1" height="1" fill="#FFFFFF" />
<rect x="9" y="0" width="1" height="1" fill="#FFFFFF" />
<rect x="10" y="0" width="1" height="1" fill="#FFFFFF" />
<rect x="11" y="0" width="1" height="1" fill="#FFFFFF" />
<rect x="12" y="0" width="1" height="1" fill="#FFFFFF" />
<rect x="13" y="0" width="1" height="1" fill="#FFFFFF" />
<rect x="14" y="0" width="1" height="1" fill="#FFFFFF" />
<rect x="15" y="0" width="1" height="1" fill="#FFFFFF" />
<rect x="16" y="0" width="1" height="1" fill="#FFFFFF" />
<rect x="17" y="0" width="1" height="1" fill="#FFFFFF" />
<rect x="18" y="0" width="1" height="1" fill="#FFFFFF" />
<rect x="19" y="0" width="1" height="1" fill="#FFFFFF" />
<rect x="20" y="0" width="1" height="1" fill="#FFFFFF" />
<rect x="21" y="0" width="1" height="1" fill="#FFFFFF" />
<rect x="22" y="0" width="1" height="1" fill="#FFFFFF" />
<rect x="23" y="0" width="1" height="1" fill="#FFFFFF" />
<rect x="24" y="0" width="1" height="1" fill="#FFFFFF" />
<rect x="25" y="0" width="1" height="1" fill="#FFFFFF" />
<rect x="26" y="0" width="1" height="1" fill="#FFFFFF" />
<rect x="27" y="0" width="1" height="1" fill="#FFFFFF" />
<rect x="28" y="0" width="1" height="1" fill="#FFFFFF" />
<rect x="29" y="0" width="1" height="1" fill="#FFFFFF" />
<rect x="1" y="1" width="1" height="1" fill="#FFFFFF" />
<rect x="2" y="1" width="1" height="1" fill="#FFFFFF" />
<rect x="3" y="1" width="1" height="1" fill="#FFFFFF" />
<rect x="4" y="1" width="1" height="1" fill="#FFFFFF" />
<rect x="5" y="1" width="1" height="1" fill="#FFFFFF" />
<rect x="6" y="1" width="1" height="1" fill="#FFFFFF" />
<rect x="7" y="1" width="1" height="1" fill="#FFFFFF" />
<rect x="8" y="1" width="1" height="1" fill="#FFFFFF" />
<rect x="9" y="1" width="1" height="1" fill="#FFFFFF" />
<rect x="10" y="1" width="1" height="1" fill="#FFFFFF" />
<rect x="11" y="1" width="1" height="1" fill="#FFFFFF" />
<rect x="12" y="1" width="1" height="1" fill="#FFFFFF" />
<rect x="13" y="1" width="1" height="1" fill="#FFFFFF" />
<rect x="18" y="1" width="1" height="1" fill="#FFFFFF" />
<rect x="19" y="1" width="1" height="1" fill="#FFFFFF" />
<rect x="20" y="1" width="1" height="1" fill="#FFFFFF" />
<rect x="21" y="1" width="1" height="1" fill="#FFFFFF" />
<rect x="22" y="1" width="1" height="1" fill="#FFFFFF" />
<rect x="23" y="1" width="1" height="1" fill="#FFFFFF" />
<rect x="24" y="1" width="1" height="1" fill="#FFFFFF" />
<rect x="25" y="1" width="1" height="1" fill="#FFFFFF" />
<rect x="26" y="1" width="1" height="1" fill="#FFFFFF" />
<rect x="27" y="1" width="1" height="1" fill="#FFFFFF" />
<rect x="28" y="1" width="1" height="1" fill="#FFFFFF" />
<rect x="29" y="1" width="1" height="1" fill="#FFFFFF" />
<rect x="30" y="1" width="1" height="1" fill="#FFFFFF" />
<rect x="0" y="2" width="1" height="1" fill="#FFFFFF" />
<rect x="1" y="2" width="1" height="1" fill="#FFFFFF" />
<rect x="2" y="2" width="1" height="1" fill="#FFFFFF" />
<rect x="3" y="2" width="1" height="1" fill="#FFFFFF" />
<rect x="28" y="2" width="1" height="1" fill="#FFFFFF" />
<rect x="29" y="2" width="1" height="1" fill="#FFFFFF" />
<rect x="30" y="2" width="1" height="1" fill="#FFFFFF" />
<rect x="31" y="2" width="1" height="1" fill="#FFFFFF" />
<rect x="0" y="3" width="1" height="1" fill="#FFFFFF" />
<rect x="1" y="3" width="1" height="1" fill="#FFFFFF" />
<rect x="2" y="3" width="1" height="1" fill="#FFFFFF" />
<rect x="29" y="3" width="1" height="1" fill="#FFFFFF" />
<rect x="30" y="3" width="1" height="1" fill="#FFFFFF" />
<rect x="31" y="3" width="1" height="1" fill="#FFFFFF" />
<rect x="0" y="4" width="1" height="1" fill="#FFFFFF" />
<rect x="1" y="4" width="1" height="1" fill="#FFFFFF" />
<rect x="30" y="4" width="1" height="1" fill="#FFFFFF" />
<rect x="31" y="4" width="1" height="1" fill="#FFFFFF" />
<rect x="0" y="5" width="1" height="1" fill="#FFFFFF" />
<rect x="1" y="5" width="1" height="1" fill="#FFFFFF" />
<rect x="30" y="5" width="1" height="1" fill="#FFFFFF" />
<rect x="31" y="5" width="1" height="1" fill="#FFFFFF" />
<rect x="0" y="6" width="1" height="1" fill="#FFFFFF" />
<rect x="1" y="6" width="1" height="1" fill="#FFFFFF" />
<rect x="30" y="6" width="1" height="1" fill="#FFFFFF" />
<rect x="31" y="6" width="1" height="1" fill="#FFFFFF" />
<rect x="0" y="7" width="1" height="1" fill="#FFFFFF" />
<rect x="1" y="7" width="1" height="1" fill="#FFFFFF" />
<rect x="30" y="7" width="1" height="1" fill="#FFFFFF" />
<rect x="31" y="7" width="1" height="1" fill="#FFFFFF" />
<rect x="0" y="8" width="1" height="1" fill="#FFFFFF" />
<rect x="1" y="8" width="1" height="1" fill="#FFFFFF" />
<rect x="30" y="8" width="1" height="1" fill="#FFFFFF" />
<rect x="31" y="8" width="1" height="1" fill="#FFFFFF" />
<rect x="0" y="9" width="1" height="1" fill="#FFFFFF" />
<rect x="1" y="9" width="1" height="1" fill="#FFFFFF" />
<rect x="30" y="9" width="1" height="1" fill="#FFFFFF" />
<rect x="31" y="9" width="1" height="1" fill="#FFFFFF" />
<rect x="0" y="10" width="1" height="1" fill="#FFFFFF" />
<rect x="1" y="10" width="1" height="1" fill="#FFFFFF" />
<rect x="30" y="10" width="1" height="1" fill="#FFFFFF" />
<rect x="31" y="10" width="1" height="1" fill="#FFFFFF" />
<rect x="0" y="11" width="1" height="1" fill="#FFFFFF" />
<rect x="1" y="11" width="1" height="1" fill="#FFFFFF" />
<rect x="30" y="11" width="1" height="1" fill="#FFFFFF" />
<rect x="31" y="11" width="1" height="1" fill="#FFFFFF" />
<rect x="0" y="12" width="1" height="1" fill="#FFFFFF" />
<rect x="1" y="12" width="1" height="1" fill="#FFFFFF" />
<rect x="30" y="12" width="1" height="1" fill="#FFFFFF" />
<rect x="31" y="12" width="1" height="1" fill="#FFFFFF" />
<rect x="0" y="13" width="1" height="1" fill="#FFFFFF" />
<rect x="1" y="13" width="1" height="1" fill="#FFFFFF" />
<rect x="30" y="13" width="1" height="1" fill="#FFFFFF" />
<rect x="31" y="13" width="1" height="1" fill="#FFFFFF" />
<rect x="0" y="14" width="1" height="1" fill="#FFFFFF" />
<rect x="31" y="14" width="1" height="1" fill="#FFFFFF" />
<rect x="0" y="15" width="1" height="1" fill="#FFFFFF" />
<rect x="31" y="15" width="1" height="1" fill="#FFFFFF" />
<rect x="0" y="16" width="1" height="1" fill="#FFFFFF" />
<rect x="31" y="16" width="1" height="1" fill="#FFFFFF" />
<rect x="0" y="17" width="1" height="1" fill="#FFFFFF" />
<rect x="31" y="17" width="1" height="1" fill="#FFFFFF" />
<rect x="0" y="18" width="1" height="1" fill="#FFFFFF" />
<rect x="1" y="18" width="1" height="1" fill="#FFFFFF" />
<rect x="30" y="18" width="1" height="1" fill="#FFFFFF" />
<rect x="31" y="18" width="1" height="1" fill="#FFFFFF" />
<rect x="0" y="19" width="1" height="1" fill="#FFFFFF" />
<rect x="1" y="19" width="1" height="1" fill="#FFFFFF" />
<rect x="30" y="19" width="1" height="1" fill="#FFFFFF" />
<rect x="31" y="19" width="1" height="1" fill="#FFFFFF" />
<rect x="0" y="20" width="1" height="1" fill="#FFFFFF" />
<rect x="1" y="20" width="1" height="1" fill="#FFFFFF" />
<rect x="30" y="20" width="1" height="1" fill="#FFFFFF" />
<rect x="31" y="20" width="1" height="1" fill="#FFFFFF" />
<rect x="0" y="21" width="1" height="1" fill="#FFFFFF" />
<rect x="1" y="21" width="1" height="1" fill="#FFFFFF" />
<rect x="30" y="21" width="1" height="1" fill="#FFFFFF" />
<rect x="31" y="21" width="1" height="1" fill="#FFFFFF" />
<rect x="0" y="22" width="1" height="1" fill="#FFFFFF" />
<rect x="1" y="22" width="1" height="1" fill="#FFFFFF" />
<rect x="30" y="22" width="1" height="1" fill="#FFFFFF" />
<rect x="31" y="22" width="1" height="1" fill="#FFFFFF" />
<rect x="0" y="23" width="1" height="1" fill="#FFFFFF" />
<rect x="1" y="23" width="1" height="1" fill="#FFFFFF" />
<rect x="30" y="23" width="1" height="1" fill="#FFFFFF" />
<rect x="31" y="23" width="1" height="1" fill="#FFFFFF" />
<rect x="0" y="24" width="1" height="1" fill="#FFFFFF" />
<rect x="1" y="24" width="1" height="1" fill="#FFFFFF" />
<rect x="30" y="24" width="1" height="1" fill="#FFFFFF" />
<rect x="31" y="24" width="1" height="1" fill="#FFFFFF" />
<rect x="0" y="25" width="1" height="1" fill="#FFFFFF" />
<rect x="1" y="25" width="1" height="1" fill="#FFFFFF" />
<rect x="30" y="25" width="1" height="1" fill="#FFFFFF" />
<rect x="31" y="25" width="1" height="1" fill="#FFFFFF" />
<rect x="0" y="26" width="1" height="1" fill="#FFFFFF" />
<rect x="1" y="26" width="1" height="1" fill="#FFFFFF" />
<rect x="30" y="26" width="1" height="1" fill="#FFFFFF" />
<rect x="31" y="26" width="1" height="1" fill="#FFFFFF" />
<rect x="0" y="27" width="1" height="1" fill="#FFFFFF" />
<rect x="1" y="27" width="1" height="1" fill="#FFFFFF" />
<rect x="30" y="27" width="1" height="1" fill="#FFFFFF" />
<rect x="31" y="27" width="1" height="1" fill="#FFFFFF" />
<rect x="0" y="28" width="1" height="1" fill="#FFFFFF" />
<rect x="1" y="28" width="1" height="1" fill="#FFFFFF" />
<rect x="2" y="28" width="1" height="1" fill="#FFFFFF" />
<rect x="29" y="28" width="1" height="1" fill="#FFFFFF" />
<rect x="30" y="28" width="1" height="1" fill="#FFFFFF" />
<rect x="31" y="28" width="1" height="1" fill="#FFFFFF" />
<rect x="0" y="29" width="1" height="1" fill="#FFFFFF" />
<rect x="1" y="29" width="1" height="1" fill="#FFFFFF" />
<rect x="2" y="29" width="1" height="1" fill="#FFFFFF" />
<rect x="3" y="29" width="1" height="1" fill="#FFFFFF" />
<rect x="28" y="29" width="1" height="1" fill="#FFFFFF" />
<rect x="29" y="29" width="1" height="1" fill="#FFFFFF" />
<rect x="30" y="29" width="1" height="1" fill="#FFFFFF" />
<rect x="31" y="29" width="1" height="1" fill="#FFFFFF" />
<rect x="1" y="30" width="1" height="1" fill="#FFFFFF" />
<rect x="2" y="30" width="1" height="1" fill="#FFFFFF" />
<rect x="3" y="30" width="1" height="1" fill="#FFFFFF" />
<rect x="4" y="30" width="1" height="1" fill="#FFFFFF" />
<rect x="5" y="30" width="1" height="1" fill="#FFFFFF" />
<rect x="6" y="30" width="1" height="1" fill="#FFFFFF" />
<rect x="7" y="30" width="1" height="1" fill="#FFFFFF" />
<rect x="8" y="30" width="1" height="1" fill="#FFFFFF" />
<rect x="9" y="30" width="1" height="1" fill="#FFFFFF" />
<rect x="10" y="30" width="1" height="1" fill="#FFFFFF" />
<rect x="11" y="30" width="1" height="1" fill="#FFFFFF" />
<rect x="12" y="30" width="1" height="1" fill="#FFFFFF" />
<rect x="13" y="30" width="1" height="1" fill="#FFFFFF" />
<rect x="18" y="30" width="1" height="1" fill="#FFFFFF" />
<rect x="19" y="30" width="1" height="1" fill="#FFFFFF" />
<rect x="20" y="30" width="1" height="1" fill="#FFFFFF" />
<rect x="21" y="30" width="1" height="1" fill="#FFFFFF" />
<rect x="22" y="30" width="1" height="1" fill="#FFFFFF" />
<rect x="23" y="30" width="1" height="1" fill="#FFFFFF" />
<rect x="24" y="30" width="1" height="1" fill="#FFFFFF" />
<rect x="25" y="30" width="1" height="1" fill="#FFFFFF" />
<rect x="26" y="30" width="1" height="1" fill="#FFFFFF" />
<rect x="27" y="30" width="1" height="1" fill="#FFFFFF" />
<rect x="28" y="30" width="1" height="1" fill="#FFFFFF" />
<rect x="29" y="30" width="1" height="1" fill="#FFFFFF" />
<rect x="30" y="30" width="1" height="1" fill="#FFFFFF" />
<rect x="2" y="31" width="1" height="1" fill="#FFFFFF" />
<rect x="3" y="31" width="1" height="1" fill="#FFFFFF" />
<rect x="4" y="31" width="1" height="1" fill="#FFFFFF" />
<rect x="5" y="31" width="1" height="1" fill="#FFFFFF" />
<rect x="6" y="31" width="1" height="1" fill="#FFFFFF" />
<rect x="7" y="31" width="1" height="1" fill="#FFFFFF" />
<rect x="8" y="31" width="1" height="1" fill="#FFFFFF" />
<rect x="9" y="31" width="1" height="1" fill="#FFFFFF" />
<rect x="10" y="31" width="1" height="1" fill="#FFFFFF" />
<rect x="11" y="31" width="1" height="1" fill="#FFFFFF" />
<rect x="12" y="31" width="1" height="1" fill="#FFFFFF" />
<rect x="13" y="31" width="1" height="1" fill="#FFFFFF" />
<rect x="14" y="31" width="1" height="1" fill="#FFFFFF" />
<rect x="15" y="31" width="1" height="1" fill="#FFFFFF" />
<rect x="16" y="31" width="1" height="1" fill="#FFFFFF" />
<rect x="17" y="31" width="1" height="1" fill="#FFFFFF" />
<rect x="18" y="31" width="1" height="1" fill="#FFFFFF" />
<rect x="19" y="31" width="1" height="1" fill="#FFFFFF" />
<rect x="20" y="31" width="1" height="1" fill="#FFFFFF" />
<rect x="21" y="31" width="1" height="1" fill="#FFFFFF" />
<rect x="22" y="31" width="1" height="1" fill="#FFFFFF" />
<rect x="23" y="31" width="1" height="1" fill="#FFFFFF" />
<rect x="24" y="31" width="1" height="1" fill="#FFFFFF" />
<rect x="25" y="31" width="1" height="1" fill="#FFFFFF" />
<rect x="26" y="31" width="1" height="1" fill="#FFFFFF" />
<rect x="27" y="31" width="1" height="1" fill="#FFFFFF" />
<rect x="28" y="31" width="1" height="1" fill="#FFFFFF" />
<rect x="29" y="31" width="1" height="1" fill="#FFFFFF" />
</svg>